ffmpeg version 1.0.6 Copyright (c) 2000-2013 the FFmpeg developers
  built on Mar 25 2013 16:06:49 with gcc 4.7 (Debian 4.7.2-5)
  configuration: --prefix=/usr --extra-cflags='-g -O2 -fstack-protector --param=ssp-buffer-size=4 -Wformat -Werror=format-security ' --extra-ldflags='-Wl,-z,relro' --cc='ccache cc' --enable-shared --enable-libmp3lame --enable-gpl --enable-nonfree --enable-libvorbis --enable-pthreads --enable-libfaac --enable-libxvid --enable-postproc --enable-x11grab --enable-libgsm --enable-libtheora --enable-libopencore-amrnb --enable-libopencore-amrwb --enable-libx264 --enable-libspeex --enable-nonfree --disable-stripping --enable-libvpx --enable-libschroedinger --disable-encoder=libschroedinger --enable-version3 --enable-libopenjpeg --enable-librtmp --enable-avfilter --enable-libfreetype --enable-libvo-aacenc --disable-decoder=amrnb --enable-libvo-amrwbenc --enable-libaacplus --libdir=/usr/lib/x86_64-linux-gnu --disable-vda --enable-libbluray --enable-libcdio --enable-gnutls --enable-frei0r --enable-openssl --enable-libass --enable-libopus --enable-fontconfig --enable-libdc1394 --enable-libfdk-aac --disable-altivec --dis  libavutil      51. 73.101 / 51. 73.101
  libavcodec     54. 59.100 / 54. 59.100
  libavformat    54. 29.104 / 54. 29.104
  libavdevice    54.  2.101 / 54.  2.101
  libavfilter     3. 17.100 /  3. 17.100
  libswscale      2.  1.101 /  2.  1.101
  libswresample   0. 15.100 /  0. 15.100
  libpostproc    52.  0.100 / 52.  0.100
Input #0, avi, from '1.avi':
  Metadata:
    encoder         : VirtualDubMod 1.5.10.1 (build 2439/release)
  Duration: 00:29:38.98, start: 0.000000, bitrate: 1102 kb/s
    Stream #0:0: Video: mpeg4 (Simple Profile) (XVID / 0x44495658), yuv420p, 512x384 [SAR 1:1 DAR 4:3], 23.98 tbr, 23.98 tbn, 23.98 tbc
    Stream #0:1: Audio: mp3 (U[0][0][0] / 0x0055), 48000 Hz, stereo, s16, 130 kb/s
[libx264 @ 0xa7a740] using SAR=1/1
[libx264 @ 0xa7a740] using cpu capabilities: MMX2 SSE2Fast SSSE3 SSE4.2 AVX
[libx264 @ 0xa7a740] profile High, level 2.1
[libx264 @ 0xa7a740] 264 - core 130 - H.264/MPEG-4 AVC codec - Copyleft 2003-2013 - http://www.videolan.org/x264.html - options: cabac=1 ref=3 deblock=1:0:0 analyse=0x3:0x113 me=hex subme=7 psy=1 psy_rd=1.00:0.00 mixed_ref=1 me_range=16 chroma_me=1 trellis=1 8x8dct=1 cqm=0 deadzone=21,11 fast_pskip=1 chroma_qp_offset=-2 threads=6 lookahead_threads=1 sliced_threads=0 nr=0 decimate=1 interlaced=0 bluray_compat=0 constrained_intra=0 bframes=3 b_pyramid=2 b_adapt=1 b_bias=0 direct=1 weightb=1 open_gop=0 weightp=2 keyint=250 keyint_min=23 scenecut=40 intra_refresh=0 rc_lookahead=40 rc=crf mbtree=1 crf=23.0 qcomp=0.60 qpmin=0 qpmax=69 qpstep=4 ip_ratio=1.40 aq=1:1.00
Output #0, mp4, to '1.mp4':
  Metadata:
    encoder         : Lavf54.29.104
    Stream #0:0: Video: h264 ([33][0][0][0] / 0x0021), yuv420p, 512x384 [SAR 1:1 DAR 4:3], q=-1--1, 2997 tbn, 23.98 tbc
    Stream #0:1: Audio: aac ([64][0][0][0] / 0x0040), 48000 Hz, stereo, s16, 128 kb/s
Stream mapping:
  Stream #0:0 -> #0:0 (mpeg4 -> libx264)
  Stream #0:1 -> #0:1 (mp3 -> libfaac)
Press [q] to stop, [?] for help
frame=  124 fps=0.0 q=28.0 size=     177kB time=00:00:05.73 bitrate= 252.5kbits/s    frame=  190 fps=190 q=28.0 size=     443kB time=00:00:08.49 bitrate= 427.4kbits/s    frame=  254 fps=169 q=28.0 size=     803kB time=00:00:11.13 bitrate= 590.9kbits/s    frame=  318 fps=158 q=28.0 size=    1197kB time=00:00:13.82 bitrate= 709.4kbits/s    frame=  370 fps=147 q=28.0 size=    1583kB time=00:00:16.00 bitrate= 810.5kbits/s    frame=  414 fps=137 q=28.0 size=    2005kB time=00:00:17.83 bitrate= 921.1kbits/s    frame=  454 fps=129 q=28.0 size=    2411kB time=00:00:19.52 bitrate=1011.9kbits/s    frame=  495 fps=122 q=25.0 size=    2846kB time=00:00:21.22 bitrate=1098.3kbits/s    frame=  542 fps=119 q=28.0 size=    3210kB time=00:00:23.18 bitrate=1134.0kbits/s    frame=  584 fps=115 q=28.0 size=    3628kB time=00:00:24.93 bitrate=1191.8kbits/s    frame=  630 fps=113 q=28.0 size=    4003kB time=00:00:26.85 bitrate=1220.8kbits/s    frame=  689 fps=113 q=28.0 size=    4306kB time=00:00:29.31 bitrate=1203.5kbits/s    frame=  745 fps=113 q=28.0 size=    4630kB time=00:00:31.63 bitrate=1199.0kbits/s    frame=  794 fps=112 q=28.0 size=    5014kB time=00:00:33.70 bitrate=1218.5kbits/s    frame=  854 fps=113 q=28.0 size=    5298kB time=00:00:36.20 bitrate=1198.9kbits/s    frame=  903 fps=112 q=28.0 size=    5724kB time=00:00:38.20 bitrate=1227.3kbits/s    frame=  949 fps=110 q=28.0 size=    6149kB time=00:00:40.14 bitrate=1254.6kbits/s    frame=  987 fps=108 q=28.0 size=    6619kB time=00:00:41.72 bitrate=1299.4kbits/s    frame= 1032 fps=107 q=28.0 size=    7151kB time=00:00:43.60 bitrate=1343.4kbits/s    frame= 1078 fps=106 q=28.0 size=    7670kB time=00:00:45.52 bitrate=1380.1kbits/s    frame= 1145 fps=108 q=28.0 size=    8065kB time=00:00:48.34 bitrate=1366.6kbits/s    frame= 1204 fps=108 q=28.0 size=    8364kB time=00:00:50.79 bitrate=1348.9kbits/s    frame= 1258 fps=108 q=28.0 size=    8771kB time=00:00:53.03 bitrate=1354.8kbits/s    frame= 1307 fps=108 q=28.0 size=    9092kB time=00:00:55.06 bitrate=1352.7kbits/s    frame= 1373 fps=109 q=28.0 size=    9406kB time=00:00:57.85 bitrate=1331.8kbits/s    frame= 1450 fps=110 q=28.0 size=    9806kB time=00:01:01.05 bitrate=1315.8kbits/s    frame= 1527 fps=112 q=28.0 size=   10133kB time=00:01:04.25 bitrate=1291.8kbits/s    frame= 1607 fps=114 q=28.0 size=   10451kB time=00:01:07.58 bitrate=1266.8kbits/s    frame= 1686 fps=115 q=28.0 size=   10764kB time=00:01:10.89 bitrate=1243.9kbits/s    frame= 1757 fps=116 q=28.0 size=   11044kB time=00:01:13.85 bitrate=1225.0kbits/s    frame= 1829 fps=117 q=28.0 size=   11363kB time=00:01:16.86 bitrate=1211.1kbits/s    frame= 1895 fps=117 q=28.0 size=   11685kB time=00:01:19.61 bitrate=1202.3kbits/s    frame= 1971 fps=118 q=28.0 size=   12043kB time=00:01:22.79 bitrate=1191.6kbits/s    frame= 2037 fps=119 q=28.0 size=   12363kB time=00:01:25.54 bitrate=1183.9kbits/s    frame= 2105 fps=119 q=28.0 size=   12636kB time=00:01:28.36 bitrate=1171.4kbits/s    frame= 2189 fps=120 q=28.0 size=   12927kB time=00:01:31.88 bitrate=1152.5kbits/s    frame= 2252 fps=121 q=28.0 size=   13295kB time=00:01:34.50 bitrate=1152.4kbits/s    frame= 2317 fps=121 q=28.0 size=   13663kB time=00:01:37.17 bitrate=1151.9kbits/s    frame= 2382 fps=121 q=28.0 size=   13943kB time=00:01:39.90 bitrate=1143.3kbits/s    frame= 2461 fps=122 q=28.0 size=   14271kB time=00:01:43.21 bitrate=1132.7kbits/s    frame= 2529 fps=122 q=28.0 size=   14523kB time=00:01:46.04 bitrate=1121.9kbits/s    frame= 2603 fps=123 q=28.0 size=   14794kB time=00:01:49.09 bitrate=1110.9kbits/s    frame= 2680 fps=124 q=25.0 size=   15086kB time=00:01:52.34 bitrate=1100.1kbits/s    frame= 2757 fps=124 q=28.0 size=   15472kB time=00:01:55.56 bitrate=1096.8kbits/s    frame= 2828 fps=125 q=28.0 size=   15757kB time=00:01:58.50 bitrate=1089.3kbits/s    frame= 2897 fps=125 q=28.0 size=   15996kB time=00:02:01.38 bitrate=1079.5kbits/s    frame= 2972 fps=125 q=28.0 size=   16266kB time=00:02:04.54 bitrate=1069.9kbits/s    frame= 3043 fps=126 q=28.0 size=   16497kB time=00:02:07.48 bitrate=1060.1kbits/s    frame= 3114 fps=126 q=28.0 size=   16752kB time=00:02:10.43 bitrate=1052.1kbits/s    frame= 3195 fps=127 q=28.0 size=   17022kB time=00:02:13.82 bitrate=1042.0kbits/s    frame= 3266 fps=127 q=28.0 size=   17279kB time=00:02:16.81 bitrate=1034.7kbits/s    frame= 3344 fps=128 q=28.0 size=   17623kB time=00:02:20.03 bitrate=1030.9kbits/s    frame= 3412 fps=128 q=28.0 size=   17990kB time=00:02:22.86 bitrate=1031.6kbits/s    frame= 3495 fps=128 q=28.0 size=   18249kB time=00:02:26.32 bitrate=1021.6kbits/s    frame= 3568 fps=129 q=28.0 size=   18495kB time=00:02:29.39 bitrate=1014.1kbits/s    frame= 3647 fps=129 q=28.0 size=   18776kB time=00:02:32.68 bitrate=1007.4kbits/s    frame= 3712 fps=129 q=28.0 size=   19017kB time=00:02:35.39 bitrate=1002.6kbits/s    frame= 3771 fps=129 q=28.0 size=   19276kB time=00:02:37.84 bitrate=1000.4kbits/s    frame= 3831 fps=129 q=28.0 size=   19577kB time=00:02:40.34 bitrate=1000.2kbits/s    frame= 3901 fps=129 q=28.0 size=   19874kB time=00:02:43.24 bitrate= 997.3kbits/s    frame= 3966 fps=129 q=28.0 size=   20208kB time=00:02:45.99 bitrate= 997.3kbits/s    frame= 4023 fps=129 q=28.0 size=   20583kB time=00:02:48.36 bitrate=1001.5kbits/s    frame= 4081 fps=128 q=28.0 size=   20886kB time=00:02:50.79 bitrate=1001.8kbits/s    frame= 4135 fps=128 q=28.0 size=   21196kB time=00:02:53.03 bitrate=1003.5kbits/s    frame= 4185 fps=127 q=28.0 size=   21476kB time=00:02:55.12 bitrate=1004.6kbits/s    frame= 4247 fps=127 q=28.0 size=   21779kB time=00:02:57.66 bitrate=1004.2kbits/s    frame= 4314 fps=127 q=28.0 size=   22060kB time=00:03:00.50 bitrate=1001.2kbits/s    frame= 4377 fps=127 q=28.0 size=   22378kB time=00:03:03.14 bitrate=1000.9kbits/s    frame= 4456 fps=128 q=28.0 size=   22751kB time=00:03:06.41 bitrate= 999.8kbits/s    frame= 4527 fps=128 q=28.0 size=   23019kB time=00:03:09.37 bitrate= 995.8kbits/s    frame= 4606 fps=128 q=28.0 size=   23321kB time=00:03:12.68 bitrate= 991.5kbits/s    frame= 4684 fps=129 q=28.0 size=   23667kB time=00:03:15.94 bitrate= 989.4kbits/s    frame= 4756 fps=129 q=28.0 size=   24031kB time=00:03:18.93 bitrate= 989.6kbits/s    frame= 4830 fps=129 q=28.0 size=   24377kB time=00:03:22.00 bitrate= 988.6kbits/s    frame= 4898 fps=129 q=28.0 size=   24647kB time=00:03:24.86 bitrate= 985.6kbits/s    frame= 4972 fps=129 q=28.0 size=   24998kB time=00:03:27.93 bitrate= 984.8kbits/s    frame= 5050 fps=130 q=28.0 size=   25387kB time=00:03:31.20 bitrate= 984.7kbits/s    frame= 5123 fps=130 q=28.0 size=   25667kB time=00:03:34.25 bitrate= 981.4kbits/s    frame= 5191 fps=130 q=28.0 size=   26012kB time=00:03:37.08 bitrate= 981.6kbits/s    frame= 5250 fps=130 q=28.0 size=   26358kB time=00:03:39.52 bitrate= 983.6kbits/s    frame= 5311 fps=130 q=28.0 size=   26650kB time=00:03:42.08 bitrate= 983.0kbits/s    frame= 5365 fps=129 q=28.0 size=   26961kB time=00:03:44.32 bitrate= 984.6kbits/s    frame= 5423 fps=129 q=28.0 size=   27265kB time=00:03:46.75 bitrate= 985.0kbits/s    frame= 5482 fps=129 q=28.0 size=   27588kB time=00:03:49.22 bitrate= 985.9kbits/s    frame= 5551 fps=129 q=28.0 size=   27871kB time=00:03:52.10 bitrate= 983.7kbits/s    frame= 5620 fps=129 q=28.0 size=   28155kB time=00:03:54.96 bitrate= 981.6kbits/s    frame= 5692 fps=129 q=28.0 size=   28428kB time=00:03:57.99 bitrate= 978.5kbits/s    frame= 5772 fps=130 q=28.0 size=   28738kB time=00:04:01.32 bitrate= 975.6kbits/s    frame= 5849 fps=130 q=28.0 size=   29058kB time=00:04:04.48 bitrate= 973.7kbits/s    frame= 5915 fps=130 q=28.0 size=   29327kB time=00:04:07.29 bitrate= 971.5kbits/s    frame= 5985 fps=130 q=28.0 size=   29724kB time=00:04:10.17 bitrate= 973.3kbits/s    frame= 6053 fps=130 q=28.0 size=   30125kB time=00:04:13.03 bitrate= 975.3kbits/s    frame= 6114 fps=130 q=28.0 size=   30562kB time=00:04:15.57 bitrate= 979.6kbits/s    frame= 6177 fps=130 q=28.0 size=   31017kB time=00:04:18.19 bitrate= 984.1kbits/s    frame= 6236 fps=130 q=28.0 size=   31429kB time=00:04:20.67 bitrate= 987.7kbits/s    frame= 6298 fps=130 q=28.0 size=   31756kB time=00:04:23.25 bitrate= 988.2kbits/s    frame= 6359 fps=130 q=28.0 size=   32046kB time=00:04:25.79 bitrate= 987.7kbits/s    frame= 6419 fps=130 q=28.0 size=   32320kB time=00:04:28.33 bitrate= 986.7kbits/s    frame= 6477 fps=129 q=28.0 size=   32564kB time=00:04:30.72 bitrate= 985.4kbits/s    frame= 6536 fps=129 q=28.0 size=   32838kB time=00:04:33.17 bitrate= 984.7kbits/s    frame= 6594 fps=129 q=28.0 size=   33121kB time=00:04:35.58 bitrate= 984.6kbits/s    frame= 6652 fps=129 q=28.0 size=   33422kB time=00:04:38.01 bitrate= 984.8kbits/s    frame= 6703 fps=129 q=28.0 size=   33748kB time=00:04:40.14 bitrate= 986.8kbits/s    frame= 6753 fps=128 q=28.0 size=   34130kB time=00:04:42.21 bitrate= 990.7kbits/s    frame= 6807 fps=128 q=28.0 size=   34527kB time=00:04:44.48 bitrate= 994.3kbits/s    frame= 6871 fps=128 q=28.0 size=   34885kB time=00:04:47.14 bitrate= 995.2kbits/s    frame= 6931 fps=128 q=28.0 size=   35206kB time=00:04:49.66 bitrate= 995.7kbits/s    frame= 6986 fps=128 q=28.0 size=   35561kB time=00:04:51.94 bitrate= 997.8kbits/s    frame= 7042 fps=128 q=28.0 size=   35892kB time=00:04:54.27 bitrate= 999.2kbits/s    frame= 7097 fps=128 q=28.0 size=   36206kB time=00:04:56.57 bitrate=1000.1kbits/s    frame= 7152 fps=127 q=28.0 size=   36496kB time=00:04:58.88 bitrate=1000.3kbits/s    frame= 7218 fps=127 q=28.0 size=   36803kB time=00:05:01.63 bitrate= 999.5kbits/s    frame= 7286 fps=128 q=28.0 size=   37112kB time=00:05:04.46 bitrate= 998.5kbits/s    frame= 7348 fps=128 q=28.0 size=   37441kB time=00:05:07.02 bitrate= 999.0kbits/s    frame= 7416 fps=128 q=28.0 size=   37790kB time=00:05:09.88 bitrate= 999.0kbits/s    frame= 7487 fps=128 q=28.0 size=   38152kB time=00:05:12.83 bitrate= 999.1kbits/s    frame= 7557 fps=128 q=28.0 size=   38523kB time=00:05:15.77 bitrate= 999.4kbits/s    frame= 7628 fps=128 q=28.0 size=   38889kB time=00:05:18.72 bitrate= 999.6kbits/s    frame= 7694 fps=128 q=28.0 size=   39215kB time=00:05:21.47 bitrate= 999.3kbits/s    frame= 7756 fps=128 q=28.0 size=   39564kB time=00:05:24.05 bitrate=1000.2kbits/s    frame= 7815 fps=128 q=28.0 size=   39907kB time=00:05:26.52 bitrate=1001.2kbits/s    frame= 7879 fps=128 q=28.0 size=   40235kB time=00:05:29.19 bitrate=1001.2kbits/s    frame= 7947 fps=128 q=28.0 size=   40571kB time=00:05:31.98 bitrate=1001.1kbits/s    frame= 8020 fps=128 q=28.0 size=   40961kB time=00:05:35.08 bitrate=1001.4kbits/s    frame= 8061 fps=128 q=28.0 size=   41198kB time=00:05:36.78 bitrate=1002.1kbits/s    frame= 8128 fps=128 q=28.0 size=   41562kB time=00:05:39.56 bitrate=1002.7kbits/s    frame= 8192 fps=128 q=28.0 size=   41895kB time=00:05:42.25 bitrate=1002.8kbits/s    frame= 8252 fps=128 q=28.0 size=   42260kB time=00:05:44.74 bitrate=1004.2kbits/s    frame= 8314 fps=128 q=28.0 size=   42605kB time=00:05:47.32 bitrate=1004.9kbits/s    frame= 8370 fps=127 q=28.0 size=   42949kB time=00:05:49.67 bitrate=1006.2kbits/s    frame= 8434 fps=127 q=28.0 size=   43289kB time=00:05:52.34 bitrate=1006.5kbits/s    frame= 8501 fps=127 q=28.0 size=   43571kB time=00:05:55.13 bitrate=1005.1kbits/s    frame= 8573 fps=128 q=28.0 size=   43858kB time=00:05:58.12 bitrate=1003.3kbits/s    frame= 8642 fps=128 q=28.0 size=   44216kB time=00:06:01.00 bitrate=1003.4kbits/s    frame= 8702 fps=128 q=28.0 size=   44544kB time=00:06:03.49 bitrate=1003.9kbits/s    frame= 8748 fps=127 q=28.0 size=   45121kB time=00:06:05.41 bitrate=1011.5kbits/s    frame= 8802 fps=127 q=28.0 size=   45628kB time=00:06:07.68 bitrate=1016.6kbits/s    frame= 8874 fps=127 q=28.0 size=   46092kB time=00:06:10.68 bitrate=1018.6kbits/s    frame= 8966 fps=128 q=28.0 size=   46395kB time=00:06:14.50 bitrate=1014.9kbits/s    frame= 9051 fps=128 q=28.0 size=   46695kB time=00:06:18.06 bitrate=1011.8kbits/s    frame= 9128 fps=128 q=28.0 size=   46972kB time=00:06:21.29 bitrate=1009.2kbits/s    frame= 9210 fps=128 q=28.0 size=   47273kB time=00:06:24.70 bitrate=1006.6kbits/s    frame= 9295 fps=129 q=28.0 size=   47617kB time=00:06:28.24 bitrate=1004.7kbits/s    frame= 9377 fps=129 q=28.0 size=   47982kB time=00:06:31.68 bitrate=1003.5kbits/s    frame= 9452 fps=129 q=28.0 size=   48380kB time=00:06:34.77 bitrate=1003.9kbits/s    frame= 9524 fps=129 q=28.0 size=   48734kB time=00:06:37.80 bitrate=1003.6kbits/s    frame= 9589 fps=129 q=28.0 size=   49060kB time=00:06:40.51 bitrate=1003.5kbits/s    frame= 9652 fps=129 q=28.0 size=   49367kB time=00:06:43.13 bitrate=1003.2kbits/s    frame= 9734 fps=129 q=28.0 size=   49721kB time=00:06:46.52 bitrate=1001.9kbits/s    frame= 9815 fps=130 q=28.0 size=   50060kB time=00:06:49.94 bitrate=1000.4kbits/s    frame= 9899 fps=130 q=28.0 size=   50427kB time=00:06:53.41 bitrate= 999.2kbits/s    frame= 9986 fps=130 q=28.0 size=   50752kB time=00:06:57.06 bitrate= 996.9kbits/s    frame=10062 fps=130 q=28.0 size=   51140kB time=00:07:00.22 bitrate= 996.9kbits/s    frame=10133 fps=130 q=28.0 size=   51494kB time=00:07:03.18 bitrate= 996.8kbits/s    frame=10198 fps=130 q=28.0 size=   51889kB time=00:07:05.89 bitrate= 998.1kbits/s    frame=10253 fps=130 q=28.0 size=   52262kB time=00:07:08.20 bitrate= 999.8kbits/s    frame=10312 fps=130 q=28.0 size=   52640kB time=00:07:10.65 bitrate=1001.3kbits/s    frame=10371 fps=130 q=28.0 size=   52946kB time=00:07:13.13 bitrate=1001.4kbits/s    frame=10438 fps=130 q=28.0 size=   53301kB time=00:07:15.94 bitrate=1001.6kbits/s    frame=10504 fps=130 q=28.0 size=   53612kB time=00:07:18.67 bitrate=1001.2kbits/s    frame=10564 fps=130 q=28.0 size=   53910kB time=00:07:21.17 bitrate=1001.0kbits/s    frame=10626 fps=130 q=28.0 size=   54189kB time=00:07:23.75 bitrate=1000.4kbits/s    frame=10685 fps=130 q=28.0 size=   54487kB time=00:07:26.22 bitrate=1000.3kbits/s    frame=10756 fps=130 q=28.0 size=   54789kB time=00:07:29.21 bitrate= 999.1kbits/s    frame=10827 fps=130 q=28.0 size=   55069kB time=00:07:32.13 bitrate= 997.8kbits/s    frame=10895 fps=130 q=28.0 size=   55344kB time=00:07:34.99 bitrate= 996.4kbits/s    frame=10954 fps=130 q=28.0 size=   55752kB time=00:07:37.45 bitrate= 998.4kbits/s    frame=11008 fps=130 q=28.0 size=   56195kB time=00:07:39.69 bitrate=1001.4kbits/s    frame=11070 fps=130 q=28.0 size=   56556kB time=00:07:42.29 bitrate=1002.2kbits/s    frame=11137 fps=130 q=28.0 size=   56910kB time=00:07:45.06 bitrate=1002.5kbits/s    frame=11215 fps=130 q=28.0 size=   57182kB time=00:07:48.33 bitrate=1000.2kbits/s    frame=11289 fps=130 q=28.0 size=   57580kB time=00:07:51.40 bitrate=1000.6kbits/s    frame=11353 fps=130 q=28.0 size=   57913kB time=00:07:54.09 bitrate=1000.7kbits/s    frame=11415 fps=130 q=28.0 size=   58244kB time=00:07:56.67 bitrate=1001.0kbits/s    frame=11473 fps=130 q=28.0 size=   58592kB time=00:07:59.06 bitrate=1001.9kbits/s    frame=11533 fps=130 q=28.0 size=   58924kB time=00:08:01.57 bitrate=1002.3kbits/s    frame=11589 fps=130 q=28.0 size=   59330kB time=00:08:03.94 bitrate=1004.3kbits/s    frame=11641 fps=130 q=28.0 size=   59633kB time=00:08:06.10 bitrate=1005.0kbits/s    frame=11699 fps=129 q=28.0 size=   59976kB time=00:08:08.51 bitrate=1005.7kbits/s    frame=11768 fps=130 q=28.0 size=   60299kB time=00:08:11.39 bitrate=1005.2kbits/s    frame=11836 fps=130 q=28.0 size=   60576kB time=00:08:14.22 bitrate=1004.1kbits/s    frame=11899 fps=130 q=28.0 size=   60842kB time=00:08:16.85 bitrate=1003.2kbits/s    frame=11968 fps=130 q=28.0 size=   61117kB time=00:08:19.73 bitrate=1001.9kbits/s    frame=12036 fps=130 q=28.0 size=   61404kB time=00:08:22.59 bitrate=1000.8kbits/s    frame=12103 fps=130 q=28.0 size=   61703kB time=00:08:25.38 bitrate=1000.2kbits/s    frame=12166 fps=130 q=28.0 size=   62005kB time=00:08:27.98 bitrate= 999.9kbits/s    frame=12224 fps=130 q=28.0 size=   62337kB time=00:08:30.40 bitrate=1000.5kbits/s    frame=12281 fps=129 q=28.0 size=   62650kB time=00:08:32.78 bitrate=1000.9kbits/s    frame=12340 fps=129 q=28.0 size=   62958kB time=00:08:35.26 bitrate=1000.9kbits/s    frame=12408 fps=129 q=28.0 size=   63215kB time=00:08:38.08 bitrate= 999.6kbits/s    frame=12474 fps=129 q=28.0 size=   63484kB time=00:08:40.85 bitrate= 998.5kbits/s    frame=12534 fps=129 q=28.0 size=   63859kB time=00:08:43.34 bitrate= 999.6kbits/s    frame=12603 fps=129 q=28.0 size=   64237kB time=00:08:46.22 bitrate=1000.0kbits/s    frame=12651 fps=129 q=28.0 size=   64392kB time=00:08:48.21 bitrate= 998.7kbits/s    frame=12729 fps=129 q=28.0 size=   64655kB time=00:08:51.47 bitrate= 996.6kbits/s    frame=12803 fps=129 q=28.0 size=   64885kB time=00:08:54.54 bitrate= 994.4kbits/s    frame=12874 fps=129 q=28.0 size=   65223kB time=00:08:57.53 bitrate= 994.0kbits/s    frame=12944 fps=129 q=28.0 size=   65603kB time=00:09:00.43 bitrate= 994.4kbits/s    frame=12999 fps=129 q=28.0 size=   65867kB time=00:09:02.74 bitrate= 994.2kbits/s    frame=13073 fps=129 q=28.0 size=   66111kB time=00:09:05.83 bitrate= 992.2kbits/s    frame=13151 fps=130 q=28.0 size=   66342kB time=00:09:09.07 bitrate= 989.8kbits/s    frame=13209 fps=130 q=28.0 size=   66616kB time=00:09:11.48 bitrate= 989.5kbits/s    frame=13274 fps=130 q=28.0 size=   66902kB time=00:09:14.21 bitrate= 988.9kbits/s    frame=13340 fps=130 q=28.0 size=   67179kB time=00:09:16.97 bitrate= 988.1kbits/s    frame=13415 fps=130 q=28.0 size=   67454kB time=00:09:20.06 bitrate= 986.6kbits/s    frame=13490 fps=130 q=28.0 size=   67810kB time=00:09:23.20 bitrate= 986.3kbits/s    frame=13552 fps=130 q=28.0 size=   68214kB time=00:09:25.80 bitrate= 987.6kbits/s    frame=13618 fps=130 q=28.0 size=   68546kB time=00:09:28.55 bitrate= 987.6kbits/s    frame=13687 fps=130 q=28.0 size=   68807kB time=00:09:31.41 bitrate= 986.4kbits/s    frame=13765 fps=130 q=28.0 size=   69069kB time=00:09:34.69 bitrate= 984.5kbits/s    frame=13835 fps=130 q=28.0 size=   69310kB time=00:09:37.64 bitrate= 982.9kbits/s    frame=13897 fps=130 q=28.0 size=   69613kB time=00:09:40.20 bitrate= 982.9kbits/s    frame=13957 fps=130 q=28.0 size=   69942kB time=00:09:42.72 bitrate= 983.3kbits/s    frame=14019 fps=130 q=28.0 size=   70281kB time=00:09:45.28 bitrate= 983.7kbits/s    frame=14082 fps=130 q=28.0 size=   70527kB time=00:09:47.90 bitrate= 982.7kbits/s    frame=14143 fps=130 q=28.0 size=   70817kB time=00:09:50.44 bitrate= 982.5kbits/s    frame=14210 fps=130 q=28.0 size=   71160kB time=00:09:53.25 bitrate= 982.6kbits/s    frame=14283 fps=130 q=28.0 size=   71480kB time=00:09:56.28 bitrate= 982.0kbits/s    frame=14359 fps=130 q=28.0 size=   71786kB time=00:09:59.44 bitrate= 981.0kbits/s    frame=14440 fps=130 q=28.0 size=   72076kB time=00:10:02.83 bitrate= 979.4kbits/s    frame=14530 fps=130 q=28.0 size=   72398kB time=00:10:06.57 bitrate= 977.8kbits/s    frame=14596 fps=130 q=28.0 size=   72634kB time=00:10:09.34 bitrate= 976.5kbits/s    frame=14652 fps=130 q=28.0 size=   72988kB time=00:10:11.66 bitrate= 977.5kbits/s    frame=14711 fps=130 q=28.0 size=   73335kB time=00:10:14.12 bitrate= 978.2kbits/s    frame=14769 fps=130 q=28.0 size=   73616kB time=00:10:16.55 bitrate= 978.1kbits/s    frame=14833 fps=130 q=28.0 size=   73945kB time=00:10:19.22 bitrate= 978.3kbits/s    frame=14896 fps=130 q=28.0 size=   74312kB time=00:10:21.86 bitrate= 978.9kbits/s    frame=14960 fps=130 q=28.0 size=   74563kB time=00:10:24.53 bitrate= 978.0kbits/s    frame=15027 fps=130 q=28.0 size=   74788kB time=00:10:27.30 bitrate= 976.7kbits/s    frame=15097 fps=130 q=28.0 size=   75005kB time=00:10:30.25 bitrate= 974.9kbits/s    frame=15165 fps=130 q=28.0 size=   75346kB time=00:10:33.08 bitrate= 975.0kbits/s    frame=15221 fps=130 q=28.0 size=   75719kB time=00:10:35.43 bitrate= 976.2kbits/s    frame=15291 fps=130 q=28.0 size=   76101kB time=00:10:38.33 bitrate= 976.6kbits/s    frame=15365 fps=130 q=28.0 size=   76334kB time=00:10:41.42 bitrate= 974.9kbits/s    frame=15438 fps=130 q=28.0 size=   76574kB time=00:10:44.48 bitrate= 973.3kbits/s    frame=15494 fps=130 q=28.0 size=   76902kB time=00:10:46.80 bitrate= 974.0kbits/s    frame=15557 fps=130 q=28.0 size=   77209kB time=00:10:49.45 bitrate= 973.9kbits/s    frame=15622 fps=130 q=28.0 size=   77496kB time=00:10:52.13 bitrate= 973.5kbits/s    frame=15682 fps=130 q=28.0 size=   77793kB time=00:10:54.63 bitrate= 973.5kbits/s    frame=15744 fps=130 q=28.0 size=   78087kB time=00:10:57.21 bitrate= 973.3kbits/s    frame=15827 fps=130 q=28.0 size=   78319kB time=00:11:00.69 bitrate= 971.1kbits/s    frame=15887 fps=130 q=28.0 size=   78633kB time=00:11:03.18 bitrate= 971.3kbits/s    frame=15957 fps=130 q=28.0 size=   79011kB time=00:11:06.11 bitrate= 971.7kbits/s    frame=16030 fps=130 q=28.0 size=   79398kB time=00:11:09.14 bitrate= 972.0kbits/s    frame=16095 fps=130 q=28.0 size=   79787kB time=00:11:11.87 bitrate= 972.8kbits/s    frame=16149 fps=130 q=28.0 size=   80179kB time=00:11:14.11 bitrate= 974.4kbits/s    frame=16207 fps=130 q=28.0 size=   80590kB time=00:11:16.54 bitrate= 975.8kbits/s    frame=16267 fps=130 q=28.0 size=   80974kB time=00:11:19.01 bitrate= 976.9kbits/s    frame=16329 fps=130 q=28.0 size=   81295kB time=00:11:21.62 bitrate= 977.0kbits/s    frame=16401 fps=130 q=28.0 size=   81575kB time=00:11:24.62 bitrate= 976.1kbits/s    frame=16457 fps=130 q=28.0 size=   81852kB time=00:11:26.95 bitrate= 976.1kbits/s    frame=16523 fps=130 q=28.0 size=   82119kB time=00:11:29.70 bitrate= 975.4kbits/s    frame=16607 fps=130 q=28.0 size=   82422kB time=00:11:33.22 bitrate= 974.0kbits/s    frame=16681 fps=130 q=28.0 size=   82723kB time=00:11:36.32 bitrate= 973.2kbits/s    frame=16739 fps=130 q=28.0 size=   83030kB time=00:11:38.73 bitrate= 973.5kbits/s    frame=16797 fps=130 q=28.0 size=   83328kB time=00:11:41.14 bitrate= 973.6kbits/s    frame=16863 fps=130 q=28.0 size=   83631kB time=00:11:43.89 bitrate= 973.3kbits/s    frame=16943 fps=130 q=28.0 size=   83940kB time=00:11:47.24 bitrate= 972.3kbits/s    frame=17018 fps=130 q=28.0 size=   84252kB time=00:11:50.35 bitrate= 971.6kbits/s    frame=17087 fps=130 q=28.0 size=   84563kB time=00:11:53.23 bitrate= 971.3kbits/s    frame=17157 fps=130 q=28.0 size=   84872kB time=00:11:56.16 bitrate= 970.8kbits/s    frame=17212 fps=130 q=28.0 size=   85224kB time=00:11:58.46 bitrate= 971.7kbits/s    frame=17269 fps=130 q=28.0 size=   85575kB time=00:12:00.83 bitrate= 972.5kbits/s    frame=17317 fps=130 q=28.0 size=   85702kB time=00:12:02.83 bitrate= 971.3kbits/s    frame=17406 fps=130 q=28.0 size=   85994kB time=00:12:06.52 bitrate= 969.6kbits/s    frame=17487 fps=130 q=28.0 size=   86269kB time=00:12:09.92 bitrate= 968.2kbits/s    frame=17568 fps=130 q=28.0 size=   86526kB time=00:12:13.29 bitrate= 966.6kbits/s    frame=17649 fps=131 q=28.0 size=   86832kB time=00:12:16.68 bitrate= 965.6kbits/s    frame=17732 fps=131 q=25.0 size=   87112kB time=00:12:20.13 bitrate= 964.2kbits/s    frame=17795 fps=131 q=28.0 size=   87437kB time=00:12:22.78 bitrate= 964.3kbits/s    frame=17859 fps=131 q=28.0 size=   87804kB time=00:12:25.45 bitrate= 964.9kbits/s    frame=17941 fps=131 q=28.0 size=   88126kB time=00:12:28.84 bitrate= 964.1kbits/s    frame=18024 fps=131 q=28.0 size=   88402kB time=00:12:32.32 bitrate= 962.6kbits/s    frame=18103 fps=131 q=28.0 size=   88659kB time=00:12:35.62 bitrate= 961.2kbits/s    frame=18185 fps=131 q=28.0 size=   88938kB time=00:12:38.99 bitrate= 959.9kbits/s    frame=18252 fps=131 q=28.0 size=   89190kB time=00:12:41.83 bitrate= 959.1kbits/s    frame=18317 fps=131 q=28.0 size=   89460kB time=00:12:44.52 bitrate= 958.6kbits/s    frame=18386 fps=131 q=28.0 size=   89714kB time=00:12:47.44 bitrate= 957.6kbits/s    frame=18459 fps=131 q=28.0 size=   89983kB time=00:12:50.47 bitrate= 956.7kbits/s    frame=18540 fps=131 q=28.0 size=   90202kB time=00:12:53.82 bitrate= 954.9kbits/s    frame=18625 fps=131 q=28.0 size=   90445kB time=00:12:57.40 bitrate= 953.1kbits/s    frame=18708 fps=131 q=28.0 size=   90716kB time=00:13:00.84 bitrate= 951.7kbits/s    frame=18788 fps=132 q=28.0 size=   90997kB time=00:13:04.14 bitrate= 950.6kbits/s    frame=18869 fps=132 q=28.0 size=   91274kB time=00:13:07.56 bitrate= 949.4kbits/s    frame=18950 fps=132 q=28.0 size=   91513kB time=00:13:10.95 bitrate= 947.8kbits/s    frame=19030 fps=132 q=28.0 size=   91739kB time=00:13:14.28 bitrate= 946.2kbits/s    frame=19106 fps=132 q=28.0 size=   92049kB time=00:13:17.44 bitrate= 945.6kbits/s    frame=19172 fps=132 q=28.0 size=   92365kB time=00:13:20.21 bitrate= 945.6kbits/s    frame=19234 fps=132 q=28.0 size=   92647kB time=00:13:22.79 bitrate= 945.4kbits/s    frame=19293 fps=132 q=28.0 size=   92935kB time=00:13:25.26 bitrate= 945.4kbits/s    frame=19355 fps=132 q=28.0 size=   93243kB time=00:13:27.80 bitrate= 945.6kbits/s    frame=19421 fps=132 q=28.0 size=   93512kB time=00:13:30.58 bitrate= 945.1kbits/s    frame=19502 fps=132 q=28.0 size=   93762kB time=00:13:33.95 bitrate= 943.7kbits/s    frame=19579 fps=132 q=28.0 size=   94032kB time=00:13:37.15 bitrate= 942.7kbits/s    frame=19652 fps=132 q=28.0 size=   94298kB time=00:13:40.20 bitrate= 941.8kbits/s    frame=19730 fps=132 q=28.0 size=   94544kB time=00:13:43.48 bitrate= 940.5kbits/s    frame=19803 fps=132 q=28.0 size=   94800kB time=00:13:46.49 bitrate= 939.6kbits/s    frame=19878 fps=132 q=28.0 size=   95062kB time=00:13:49.65 bitrate= 938.6kbits/s    frame=19961 fps=132 q=28.0 size=   95325kB time=00:13:53.10 bitrate= 937.3kbits/s    frame=20021 fps=132 q=28.0 size=   95607kB time=00:13:55.60 bitrate= 937.3kbits/s    frame=20082 fps=132 q=28.0 size=   95882kB time=00:13:58.12 bitrate= 937.2kbits/s    frame=20152 fps=132 q=28.0 size=   96106kB time=00:14:01.08 bitrate= 936.1kbits/s    frame=20226 fps=132 q=28.0 size=   96364kB time=00:14:04.13 bitrate= 935.2kbits/s    frame=20299 fps=132 q=28.0 size=   96603kB time=00:14:07.21 bitrate= 934.1kbits/s    frame=20363 fps=132 q=28.0 size=   96863kB time=00:14:09.89 bitrate= 933.6kbits/s    frame=20423 fps=132 q=28.0 size=   97137kB time=00:14:12.39 bitrate= 933.5kbits/s    frame=20488 fps=132 q=28.0 size=   97484kB time=00:14:15.10 bitrate= 933.9kbits/s    frame=20568 fps=132 q=28.0 size=   97858kB time=00:14:18.43 bitrate= 933.9kbits/s    frame=20646 fps=132 q=28.0 size=   98199kB time=00:14:21.67 bitrate= 933.6kbits/s    frame=20717 fps=133 q=28.0 size=   98475kB time=00:14:24.64 bitrate= 933.0kbits/s    frame=20790 fps=133 q=28.0 size=   98727kB time=00:14:27.69 bitrate= 932.1kbits/s    frame=20858 fps=133 q=28.0 size=   98985kB time=00:14:30.50 bitrate= 931.5kbits/s    frame=20924 fps=133 q=28.0 size=   99254kB time=00:14:33.25 bitrate= 931.1kbits/s    frame=21003 fps=133 q=28.0 size=   99527kB time=00:14:36.54 bitrate= 930.2kbits/s    frame=21078 fps=133 q=28.0 size=   99859kB time=00:14:39.70 bitrate= 929.9kbits/s    frame=21154 fps=133 q=28.0 size=  100201kB time=00:14:42.85 bitrate= 929.8kbits/s    frame=21231 fps=133 q=28.0 size=  100493kB time=00:14:46.08 bitrate= 929.1kbits/s    frame=21316 fps=133 q=28.0 size=  100746kB time=00:14:49.64 bitrate= 927.7kbits/s    frame=21391 fps=133 q=28.0 size=  101034kB time=00:14:52.75 bitrate= 927.1kbits/s    frame=21459 fps=133 q=28.0 size=  101289kB time=00:14:55.59 bitrate= 926.5kbits/s    frame=21536 fps=133 q=28.0 size=  101554kB time=00:14:58.79 bitrate= 925.6kbits/s    frame=21591 fps=133 q=28.0 size=  101875kB time=00:15:01.09 bitrate= 926.2kbits/s    frame=21637 fps=133 q=28.0 size=  102089kB time=00:15:03.01 bitrate= 926.1kbits/s    frame=21703 fps=133 q=28.0 size=  102331kB time=00:15:05.77 bitrate= 925.5kbits/s    frame=21765 fps=133 q=28.0 size=  102573kB time=00:15:08.35 bitrate= 925.1kbits/s    frame=21841 fps=133 q=28.0 size=  102822kB time=00:15:11.53 bitrate= 924.1kbits/s    frame=21920 fps=133 q=28.0 size=  103085kB time=00:15:14.81 bitrate= 923.1kbits/s    frame=22000 fps=133 q=28.0 size=  103367kB time=00:15:18.14 bitrate= 922.3kbits/s    frame=22080 fps=133 q=28.0 size=  103629kB time=00:15:21.47 bitrate= 921.3kbits/s    frame=22156 fps=133 q=28.0 size=  103842kB time=00:15:24.65 bitrate= 920.0kbits/s    frame=22223 fps=133 q=28.0 size=  104060kB time=00:15:27.46 bitrate= 919.1kbits/s    frame=22294 fps=133 q=28.0 size=  104332kB time=00:15:30.41 bitrate= 918.6kbits/s    frame=22371 fps=133 q=28.0 size=  104566kB time=00:15:33.63 bitrate= 917.5kbits/s    frame=22441 fps=133 q=28.0 size=  104810kB time=00:15:36.55 bitrate= 916.8kbits/s    frame=22504 fps=133 q=28.0 size=  105072kB time=00:15:39.17 bitrate= 916.5kbits/s    frame=22572 fps=133 q=28.0 size=  105322kB time=00:15:41.99 bitrate= 915.9kbits/s    frame=22644 fps=133 q=28.0 size=  105577kB time=00:15:45.00 bitrate= 915.2kbits/s    frame=22715 fps=133 q=28.0 size=  105830kB time=00:15:47.96 bitrate= 914.5kbits/s    frame=22789 fps=133 q=28.0 size=  106079kB time=00:15:51.08 bitrate= 913.7kbits/s    frame=22860 fps=133 q=28.0 size=  106334kB time=00:15:54.02 bitrate= 913.1kbits/s    frame=22932 fps=133 q=28.0 size=  106582kB time=00:15:57.03 bitrate= 912.3kbits/s    frame=23006 fps=133 q=28.0 size=  106865kB time=00:16:00.12 bitrate= 911.8kbits/s    frame=23068 fps=133 q=28.0 size=  107107kB time=00:16:02.70 bitrate= 911.4kbits/s    frame=23135 fps=133 q=28.0 size=  107374kB time=00:16:05.50 bitrate= 911.0kbits/s    frame=23212 fps=133 q=28.0 size=  107608kB time=00:16:08.68 bitrate= 910.0kbits/s    frame=23275 fps=133 q=28.0 size=  107842kB time=00:16:11.32 bitrate= 909.5kbits/s    frame=23344 fps=133 q=28.0 size=  108174kB time=00:16:14.20 bitrate= 909.6kbits/s    frame=23426 fps=133 q=28.0 size=  108427kB time=00:16:17.64 bitrate= 908.5kbits/s    frame=23500 fps=134 q=28.0 size=  108695kB time=00:16:20.71 bitrate= 907.9kbits/s    frame=23570 fps=134 q=28.0 size=  108956kB time=00:16:23.63 bitrate= 907.4kbits/s    frame=23648 fps=134 q=28.0 size=  109222kB time=00:16:26.85 bitrate= 906.7kbits/s    frame=23732 fps=134 q=28.0 size=  109478kB time=00:16:30.37 bitrate= 905.6kbits/s    frame=23816 fps=134 q=28.0 size=  109731kB time=00:16:33.89 bitrate= 904.4kbits/s    frame=23894 fps=134 q=28.0 size=  109998kB time=00:16:37.16 bitrate= 903.7kbits/s    frame=23968 fps=134 q=28.0 size=  110264kB time=00:16:40.23 bitrate= 903.1kbits/s    frame=24040 fps=134 q=28.0 size=  110531kB time=00:16:43.24 bitrate= 902.5kbits/s    frame=24117 fps=134 q=28.0 size=  110804kB time=00:16:46.42 bitrate= 901.9kbits/s    frame=24194 fps=134 q=28.0 size=  111063kB time=00:16:49.66 bitrate= 901.1kbits/s    frame=24267 fps=134 q=28.0 size=  111338kB time=00:16:52.71 bitrate= 900.6kbits/s    frame=24333 fps=134 q=28.0 size=  111597kB time=00:16:55.46 bitrate= 900.3kbits/s    frame=24399 fps=134 q=28.0 size=  111882kB time=00:16:58.19 bitrate= 900.2kbits/s    frame=24459 fps=134 q=28.0 size=  112130kB time=00:17:00.71 bitrate= 899.9kbits/s    frame=24521 fps=134 q=28.0 size=  112379kB time=00:17:03.31 bitrate= 899.6kbits/s    frame=24596 fps=134 q=28.0 size=  112636kB time=00:17:06.45 bitrate= 898.9kbits/s    frame=24659 fps=134 q=28.0 size=  112884kB time=00:17:09.05 bitrate= 898.6kbits/s    frame=24730 fps=134 q=28.0 size=  113147kB time=00:17:12.02 bitrate= 898.1kbits/s    frame=24809 fps=134 q=28.0 size=  113389kB time=00:17:15.30 bitrate= 897.2kbits/s    frame=24896 fps=134 q=28.0 size=  113645kB time=00:17:18.93 bitrate= 896.1kbits/s    frame=24966 fps=134 q=28.0 size=  113923kB time=00:17:21.85 bitrate= 895.8kbits/s    frame=25051 fps=134 q=28.0 size=  114233kB time=00:17:25.39 bitrate= 895.2kbits/s    frame=25137 fps=134 q=28.0 size=  114537kB time=00:17:29.00 bitrate= 894.5kbits/s    frame=25226 fps=134 q=28.0 size=  114815kB time=00:17:32.71 bitrate= 893.5kbits/s    frame=25305 fps=135 q=28.0 size=  115093kB time=00:17:36.00 bitrate= 892.8kbits/s    frame=25381 fps=135 q=28.0 size=  115382kB time=00:17:39.17 bitrate= 892.4kbits/s    frame=25450 fps=135 q=28.0 size=  115704kB time=00:17:42.05 bitrate= 892.5kbits/s    frame=25519 fps=135 q=28.0 size=  116057kB time=00:17:44.93 bitrate= 892.8kbits/s    frame=25599 fps=135 q=28.0 size=  116340kB time=00:17:48.26 bitrate= 892.1kbits/s    frame=25677 fps=135 q=28.0 size=  116569kB time=00:17:51.50 bitrate= 891.2kbits/s    frame=25755 fps=135 q=28.0 size=  116799kB time=00:17:54.77 bitrate= 890.3kbits/s    frame=25844 fps=135 q=28.0 size=  117047kB time=00:17:58.48 bitrate= 889.1kbits/s    frame=25934 fps=135 q=28.0 size=  117283kB time=00:18:02.21 bitrate= 887.8kbits/s    frame=26005 fps=135 q=28.0 size=  117544kB time=00:18:05.18 bitrate= 887.3kbits/s    frame=26075 fps=135 q=28.0 size=  117766kB time=00:18:08.08 bitrate= 886.6kbits/s    frame=26152 fps=135 q=28.0 size=  117982kB time=00:18:11.32 bitrate= 885.6kbits/s    frame=26234 fps=135 q=28.0 size=  118179kB time=00:18:14.74 bitrate= 884.3kbits/s    frame=26311 fps=135 q=28.0 size=  118388kB time=00:18:17.98 bitrate= 883.3kbits/s    frame=26379 fps=135 q=28.0 size=  118643kB time=00:18:20.77 bitrate= 882.9kbits/s    frame=26443 fps=135 q=28.0 size=  118884kB time=00:18:23.46 bitrate= 882.6kbits/s    frame=26510 fps=135 q=28.0 size=  119123kB time=00:18:26.26 bitrate= 882.1kbits/s    frame=26581 fps=135 q=28.0 size=  119335kB time=00:18:29.22 bitrate= 881.3kbits/s    frame=26639 fps=135 q=28.0 size=  119559kB time=00:18:31.63 bitrate= 881.1kbits/s    frame=26713 fps=135 q=28.0 size=  119751kB time=00:18:34.73 bitrate= 880.0kbits/s    frame=26766 fps=135 q=28.0 size=  119863kB time=00:18:36.92 bitrate= 879.1kbits/s    frame=26842 fps=135 q=28.0 size=  120048kB time=00:18:40.10 bitrate= 878.0kbits/s    frame=26917 fps=135 q=28.0 size=  120213kB time=00:18:43.22 bitrate= 876.8kbits/s    frame=26996 fps=135 q=28.0 size=  120364kB time=00:18:46.50 bitrate= 875.3kbits/s    frame=27052 fps=135 q=28.0 size=  120658kB time=00:18:48.87 bitrate= 875.6kbits/s    frame=27105 fps=135 q=28.0 size=  121143kB time=00:18:51.07 bitrate= 877.4kbits/s    frame=27168 fps=135 q=28.0 size=  121581kB time=00:18:53.71 bitrate= 878.5kbits/s    frame=27236 fps=135 q=28.0 size=  121953kB time=00:18:56.55 bitrate= 879.0kbits/s    frame=27289 fps=135 q=28.0 size=  122327kB time=00:18:58.75 bitrate= 880.0kbits/s    frame=27346 fps=135 q=28.0 size=  122746kB time=00:19:01.16 bitrate= 881.2kbits/s    frame=27419 fps=135 q=28.0 size=  123141kB time=00:19:04.17 bitrate= 881.7kbits/s    frame=27487 fps=135 q=28.0 size=  123452kB time=00:19:07.00 bitrate= 881.7kbits/s    frame=27555 fps=135 q=28.0 size=  123767kB time=00:19:09.84 bitrate= 881.8kbits/s    frame=27620 fps=135 q=28.0 size=  124044kB time=00:19:12.55 bitrate= 881.7kbits/s    frame=27694 fps=135 q=28.0 size=  124285kB time=00:19:15.64 bitrate= 881.0kbits/s    frame=27760 fps=135 q=28.0 size=  124602kB time=00:19:18.37 bitrate= 881.2kbits/s    frame=27827 fps=135 q=28.0 size=  124902kB time=00:19:21.19 bitrate= 881.2kbits/s    frame=27904 fps=135 q=28.0 size=  125245kB time=00:19:24.41 bitrate= 881.1kbits/s    frame=27970 fps=135 q=28.0 size=  125534kB time=00:19:27.14 bitrate= 881.1kbits/s    frame=28029 fps=135 q=28.0 size=  125819kB time=00:19:29.62 bitrate= 881.2kbits/s    frame=28103 fps=135 q=28.0 size=  126155kB time=00:19:32.69 bitrate= 881.3kbits/s    frame=28168 fps=135 q=28.0 size=  126432kB time=00:19:35.38 bitrate= 881.2kbits/s    frame=28237 fps=135 q=28.0 size=  126623kB time=00:19:38.28 bitrate= 880.3kbits/s    frame=28318 fps=135 q=28.0 size=  126991kB time=00:19:41.67 bitrate= 880.4kbits/s    frame=28379 fps=135 q=28.0 size=  127333kB time=00:19:44.23 bitrate= 880.8kbits/s    frame=28446 fps=135 q=28.0 size=  127679kB time=00:19:47.00 bitrate= 881.2kbits/s    frame=28524 fps=135 q=28.0 size=  127883kB time=00:19:50.25 bitrate= 880.2kbits/s    frame=28605 fps=135 q=28.0 size=  128161kB time=00:19:53.64 bitrate= 879.6kbits/s    frame=28672 fps=135 q=28.0 size=  128573kB time=00:19:56.41 bitrate= 880.4kbits/s    frame=28746 fps=135 q=28.0 size=  128843kB time=00:19:59.53 bitrate= 879.9kbits/s    frame=28810 fps=135 q=28.0 size=  129163kB time=00:20:02.17 bitrate= 880.2kbits/s    frame=28878 fps=135 q=28.0 size=  129505kB time=00:20:05.01 bitrate= 880.4kbits/s    frame=28953 fps=135 q=28.0 size=  129771kB time=00:20:08.17 bitrate= 879.9kbits/s    frame=29023 fps=135 q=28.0 size=  130150kB time=00:20:11.07 bitrate= 880.4kbits/s    frame=29094 fps=135 q=28.0 size=  130504kB time=00:20:14.01 bitrate= 880.6kbits/s    frame=29162 fps=135 q=28.0 size=  130846kB time=00:20:16.87 bitrate= 880.9kbits/s    frame=29237 fps=135 q=28.0 size=  131150kB time=00:20:19.98 bitrate= 880.6kbits/s    frame=29306 fps=135 q=28.0 size=  131415kB time=00:20:22.89 bitrate= 880.3kbits/s    frame=29358 fps=135 q=28.0 size=  131747kB time=00:20:25.02 bitrate= 881.0kbits/s    frame=29411 fps=135 q=28.0 size=  132148kB time=00:20:27.26 bitrate= 882.1kbits/s    frame=29465 fps=135 q=28.0 size=  132469kB time=00:20:29.50 bitrate= 882.6kbits/s    frame=29525 fps=135 q=28.0 size=  132807kB time=00:20:32.02 bitrate= 883.1kbits/s    frame=29606 fps=135 q=28.0 size=  133167kB time=00:20:35.37 bitrate= 883.1kbits/s    frame=29685 fps=135 q=28.0 size=  133550kB time=00:20:38.69 bitrate= 883.2kbits/s    frame=29747 fps=135 q=28.0 size=  133888kB time=00:20:41.28 bitrate= 883.6kbits/s    frame=29811 fps=135 q=28.0 size=  134237kB time=00:20:43.94 bitrate= 884.0kbits/s    frame=29889 fps=135 q=28.0 size=  134563kB time=00:20:47.18 bitrate= 883.9kbits/s    frame=29952 fps=135 q=28.0 size=  134963kB time=00:20:49.83 bitrate= 884.6kbits/s    frame=30026 fps=135 q=28.0 size=  135278kB time=00:20:52.90 bitrate= 884.5kbits/s    frame=30082 fps=135 q=28.0 size=  135582kB time=00:20:55.25 bitrate= 884.8kbits/s    frame=30139 fps=135 q=28.0 size=  135889kB time=00:20:57.62 bitrate= 885.2kbits/s    frame=30217 fps=135 q=25.0 size=  136181kB time=00:21:00.86 bitrate= 884.8kbits/s    frame=30278 fps=135 q=28.0 size=  136464kB time=00:21:03.42 bitrate= 884.8kbits/s    frame=30342 fps=135 q=28.0 size=  136803kB time=00:21:06.09 bitrate= 885.2kbits/s    frame=30396 fps=135 q=28.0 size=  137128kB time=00:21:08.33 bitrate= 885.7kbits/s    frame=30454 fps=135 q=28.0 size=  137438kB time=00:21:10.72 bitrate= 886.0kbits/s    frame=30507 fps=135 q=28.0 size=  137750kB time=00:21:12.96 bitrate= 886.5kbits/s    frame=30574 fps=135 q=28.0 size=  137985kB time=00:21:15.75 bitrate= 886.0kbits/s    frame=30648 fps=135 q=28.0 size=  138205kB time=00:21:18.84 bitrate= 885.3kbits/s    frame=30723 fps=135 q=28.0 size=  138436kB time=00:21:21.98 bitrate= 884.6kbits/s    frame=30789 fps=135 q=28.0 size=  138686kB time=00:21:24.71 bitrate= 884.3kbits/s    frame=30845 fps=135 q=28.0 size=  138972kB time=00:21:27.08 bitrate= 884.5kbits/s    frame=30909 fps=135 q=28.0 size=  139237kB time=00:21:29.70 bitrate= 884.4kbits/s    frame=30975 fps=135 q=28.0 size=  139508kB time=00:21:32.50 bitrate= 884.2kbits/s    frame=31039 fps=135 q=28.0 size=  139802kB time=00:21:35.14 bitrate= 884.3kbits/s    frame=31099 fps=135 q=28.0 size=  140110kB time=00:21:37.64 bitrate= 884.5kbits/s    frame=31164 fps=135 q=28.0 size=  140351kB time=00:21:40.39 bitrate= 884.2kbits/s    frame=31229 fps=135 q=28.0 size=  140618kB time=00:21:43.08 bitrate= 884.0kbits/s    frame=31300 fps=135 q=28.0 size=  140877kB time=00:21:46.00 bitrate= 883.7kbits/s    frame=31349 fps=135 q=28.0 size=  141094kB time=00:21:48.09 bitrate= 883.6kbits/s    frame=31425 fps=135 q=28.0 size=  141354kB time=00:21:51.23 bitrate= 883.1kbits/s    frame=31493 fps=135 q=28.0 size=  141633kB time=00:21:54.11 bitrate= 882.9kbits/s    frame=31554 fps=135 q=28.0 size=  141929kB time=00:21:56.60 bitrate= 883.1kbits/s    frame=31622 fps=135 q=28.0 size=  142238kB time=00:21:59.46 bitrate= 883.1kbits/s    frame=31686 fps=135 q=28.0 size=  142555kB time=00:22:02.13 bitrate= 883.3kbits/s    frame=31752 fps=135 q=28.0 size=  142886kB time=00:22:04.90 bitrate= 883.5kbits/s    frame=31819 fps=135 q=28.0 size=  143207kB time=00:22:07.68 bitrate= 883.6kbits/s    frame=31886 fps=135 q=28.0 size=  143540kB time=00:22:10.49 bitrate= 883.8kbits/s    frame=31947 fps=135 q=28.0 size=  143842kB time=00:22:13.03 bitrate= 884.0kbits/s    frame=32013 fps=135 q=28.0 size=  144099kB time=00:22:15.76 bitrate= 883.7kbits/s    frame=32077 fps=135 q=28.0 size=  144337kB time=00:22:18.45 bitrate= 883.4kbits/s    frame=32133 fps=134 q=28.0 size=  144633kB time=00:22:20.77 bitrate= 883.7kbits/s    frame=32194 fps=134 q=28.0 size=  144909kB time=00:22:23.36 bitrate= 883.7kbits/s    frame=32252 fps=134 q=28.0 size=  145230kB time=00:22:25.74 bitrate= 884.1kbits/s    frame=32312 fps=134 q=28.0 size=  145551kB time=00:22:28.24 bitrate= 884.4kbits/s    frame=32379 fps=134 q=28.0 size=  145867kB time=00:22:31.06 bitrate= 884.4kbits/s    frame=32463 fps=134 q=28.0 size=  146134kB time=00:22:34.56 bitrate= 883.8kbits/s    frame=32532 fps=134 q=28.0 size=  146365kB time=00:22:37.41 bitrate= 883.3kbits/s    frame=32609 fps=134 q=28.0 size=  146576kB time=00:22:40.64 bitrate= 882.5kbits/s    frame=32690 fps=135 q=28.0 size=  146873kB time=00:22:44.03 bitrate= 882.1kbits/s    frame=32771 fps=135 q=28.0 size=  147152kB time=00:22:47.38 bitrate= 881.6kbits/s    frame=32853 fps=135 q=28.0 size=  147420kB time=00:22:50.83 bitrate= 881.0kbits/s    frame=32927 fps=135 q=28.0 size=  147630kB time=00:22:53.90 bitrate= 880.2kbits/s    frame=33002 fps=135 q=28.0 size=  147845kB time=00:22:57.02 bitrate= 879.5kbits/s    frame=33077 fps=135 q=28.0 size=  148056kB time=00:23:00.16 bitrate= 878.8kbits/s    frame=33152 fps=135 q=28.0 size=  148279kB time=00:23:03.27 bitrate= 878.1kbits/s    frame=33223 fps=135 q=28.0 size=  148519kB time=00:23:06.24 bitrate= 877.7kbits/s    frame=33287 fps=135 q=28.0 size=  148841kB time=00:23:08.90 bitrate= 877.9kbits/s    frame=33366 fps=135 q=28.0 size=  149211kB time=00:23:12.21 bitrate= 878.0kbits/s    frame=33445 fps=135 q=28.0 size=  149442kB time=00:23:15.49 bitrate= 877.3kbits/s    frame=33511 fps=135 q=28.0 size=  149703kB time=00:23:18.27 bitrate= 877.1kbits/s    frame=33571 fps=135 q=28.0 size=  150008kB time=00:23:20.76 bitrate= 877.3kbits/s    frame=33641 fps=135 q=28.0 size=  150344kB time=00:23:23.69 bitrate= 877.4kbits/s    frame=33706 fps=135 q=28.0 size=  150604kB time=00:23:26.40 bitrate= 877.2kbits/s    frame=33760 fps=135 q=28.0 size=  150920kB time=00:23:28.64 bitrate= 877.7kbits/s    frame=33829 fps=135 q=28.0 size=  151324kB time=00:23:31.52 bitrate= 878.2kbits/s    frame=33903 fps=135 q=28.0 size=  151678kB time=00:23:34.59 bitrate= 878.4kbits/s    frame=33968 fps=135 q=28.0 size=  152073kB time=00:23:37.32 bitrate= 879.0kbits/s    frame=34025 fps=135 q=28.0 size=  152404kB time=00:23:39.69 bitrate= 879.4kbits/s    frame=34096 fps=135 q=28.0 size=  152662kB time=00:23:42.65 bitrate= 879.1kbits/s    frame=34173 fps=135 q=28.0 size=  152910kB time=00:23:45.89 bitrate= 878.5kbits/s    frame=34250 fps=135 q=28.0 size=  153136kB time=00:23:49.07 bitrate= 877.8kbits/s    frame=34311 fps=135 q=28.0 size=  153407kB time=00:23:51.61 bitrate= 877.8kbits/s    frame=34380 fps=135 q=28.0 size=  153821kB time=00:23:54.49 bitrate= 878.4kbits/s    frame=34435 fps=135 q=28.0 size=  154110kB time=00:23:56.80 bitrate= 878.7kbits/s    frame=34493 fps=135 q=28.0 size=  154459kB time=00:23:59.21 bitrate= 879.2kbits/s    frame=34554 fps=135 q=28.0 size=  154850kB time=00:24:01.74 bitrate= 879.9kbits/s    frame=34620 fps=135 q=28.0 size=  155122kB time=00:24:04.52 bitrate= 879.7kbits/s    frame=34690 fps=135 q=28.0 size=  155444kB time=00:24:07.44 bitrate= 879.8kbits/s    frame=34760 fps=135 q=28.0 size=  155825kB time=00:24:10.34 bitrate= 880.1kbits/s    frame=34830 fps=135 q=28.0 size=  156222kB time=00:24:13.26 bitrate= 880.6kbits/s    frame=34914 fps=135 q=28.0 size=  156460kB time=00:24:16.76 bitrate= 879.8kbits/s    frame=34975 fps=135 q=28.0 size=  156737kB time=00:24:19.32 bitrate= 879.8kbits/s    frame=35038 fps=135 q=28.0 size=  157044kB time=00:24:21.93 bitrate= 880.0kbits/s    frame=35103 fps=135 q=28.0 size=  157326kB time=00:24:24.64 bitrate= 880.0kbits/s    frame=35164 fps=135 q=28.0 size=  157634kB time=00:24:27.17 bitrate= 880.2kbits/s    frame=35232 fps=135 q=28.0 size=  157900kB time=00:24:30.05 bitrate= 879.9kbits/s    frame=35299 fps=135 q=28.0 size=  158197kB time=00:24:32.83 bitrate= 879.9kbits/s    frame=35363 fps=135 q=28.0 size=  158402kB time=00:24:35.49 bitrate= 879.5kbits/s    frame=35420 fps=135 q=28.0 size=  158681kB time=00:24:37.86 bitrate= 879.6kbits/s    frame=35475 fps=135 q=28.0 size=  159019kB time=00:24:40.17 bitrate= 880.1kbits/s    frame=35532 fps=135 q=28.0 size=  159398kB time=00:24:42.53 bitrate= 880.8kbits/s    frame=35598 fps=135 q=28.0 size=  159783kB time=00:24:45.31 bitrate= 881.3kbits/s    frame=35667 fps=135 q=28.0 size=  160105kB time=00:24:48.17 bitrate= 881.3kbits/s    frame=35741 fps=135 q=28.0 size=  160395kB time=00:24:51.26 bitrate= 881.1kbits/s    frame=35810 fps=135 q=28.0 size=  160685kB time=00:24:54.14 bitrate= 881.0kbits/s    frame=35881 fps=135 q=28.0 size=  160979kB time=00:24:57.08 bitrate= 880.9kbits/s    frame=35955 fps=135 q=28.0 size=  161292kB time=00:25:00.20 bitrate= 880.8kbits/s    frame=36027 fps=135 q=28.0 size=  161560kB time=00:25:03.21 bitrate= 880.4kbits/s    frame=36070 fps=134 q=28.0 size=  161745kB time=00:25:05.00 bitrate= 880.4kbits/s    frame=36139 fps=135 q=28.0 size=  162040kB time=00:25:07.88 bitrate= 880.3kbits/s    frame=36206 fps=135 q=28.0 size=  162337kB time=00:25:10.65 bitrate= 880.3kbits/s    frame=36283 fps=135 q=28.0 size=  162604kB time=00:25:13.87 bitrate= 879.9kbits/s    frame=36359 fps=135 q=28.0 size=  162815kB time=00:25:17.03 bitrate= 879.2kbits/s    frame=36432 fps=135 q=28.0 size=  163089kB time=00:25:20.08 bitrate= 878.9kbits/s    frame=36504 fps=135 q=28.0 size=  163464kB time=00:25:23.09 bitrate= 879.2kbits/s    frame=36569 fps=135 q=28.0 size=  163724kB time=00:25:25.80 bitrate= 879.0kbits/s    frame=36635 fps=135 q=28.0 size=  163958kB time=00:25:28.55 bitrate= 878.7kbits/s    frame=36702 fps=135 q=28.0 size=  164192kB time=00:25:31.34 bitrate= 878.4kbits/s    frame=36777 fps=135 q=28.0 size=  164500kB time=00:25:34.48 bitrate= 878.2kbits/s    frame=36847 fps=135 q=28.0 size=  164768kB time=00:25:37.36 bitrate= 878.0kbits/s    frame=36916 fps=135 q=28.0 size=  165136kB time=00:25:40.26 bitrate= 878.3kbits/s    frame=36990 fps=135 q=28.0 size=  165416kB time=00:25:43.36 bitrate= 878.0kbits/s    frame=37059 fps=135 q=28.0 size=  165819kB time=00:25:46.24 bitrate= 878.5kbits/s    frame=37135 fps=135 q=28.0 size=  166157kB time=00:25:49.41 bitrate= 878.5kbits/s    frame=37210 fps=135 q=28.0 size=  166495kB time=00:25:52.53 bitrate= 878.5kbits/s    frame=37272 fps=135 q=28.0 size=  166779kB time=00:25:55.15 bitrate= 878.5kbits/s    frame=37342 fps=135 q=28.0 size=  167031kB time=00:25:58.05 bitrate= 878.2kbits/s    frame=37416 fps=135 q=28.0 size=  167314kB time=00:26:01.13 bitrate= 878.0kbits/s    frame=37495 fps=135 q=28.0 size=  167559kB time=00:26:04.41 bitrate= 877.4kbits/s    frame=37566 fps=135 q=28.0 size=  167938kB time=00:26:07.40 bitrate= 877.7kbits/s    frame=37626 fps=135 q=28.0 size=  168352kB time=00:26:09.89 bitrate= 878.5kbits/s    frame=37686 fps=135 q=28.0 size=  168693kB time=00:26:12.39 bitrate= 878.9kbits/s    frame=37740 fps=135 q=28.0 size=  168966kB time=00:26:14.63 bitrate= 879.0kbits/s    frame=37803 fps=135 q=28.0 size=  169189kB time=00:26:17.28 bitrate= 878.7kbits/s    frame=37872 fps=135 q=28.0 size=  169456kB time=00:26:20.16 bitrate= 878.5kbits/s    frame=37955 fps=135 q=28.0 size=  169792kB time=00:26:23.61 bitrate= 878.3kbits/s    frame=38031 fps=135 q=28.0 size=  170149kB time=00:26:26.79 bitrate= 878.4kbits/s    frame=38093 fps=135 q=28.0 size=  170479kB time=00:26:29.37 bitrate= 878.7kbits/s    frame=38155 fps=135 q=28.0 size=  170889kB time=00:26:31.93 bitrate= 879.4kbits/s    frame=38230 fps=135 q=28.0 size=  171246kB time=00:26:35.09 bitrate= 879.5kbits/s    frame=38306 fps=135 q=28.0 size=  171582kB time=00:26:38.22 bitrate= 879.5kbits/s    frame=38377 fps=135 q=28.0 size=  171945kB time=00:26:41.21 bitrate= 879.7kbits/s    frame=38437 fps=135 q=28.0 size=  172288kB time=00:26:43.69 bitrate= 880.1kbits/s    frame=38489 fps=135 q=28.0 size=  172626kB time=00:26:45.88 bitrate= 880.6kbits/s    frame=38544 fps=135 q=28.0 size=  172955kB time=00:26:48.17 bitrate= 881.0kbits/s    frame=38600 fps=135 q=28.0 size=  173284kB time=00:26:50.51 bitrate= 881.4kbits/s    frame=38660 fps=135 q=28.0 size=  173640kB time=00:26:52.99 bitrate= 881.9kbits/s    frame=38729 fps=135 q=28.0 size=  173922kB time=00:26:55.89 bitrate= 881.7kbits/s    frame=38788 fps=135 q=28.0 size=  174251kB time=00:26:58.34 bitrate= 882.1kbits/s    frame=38851 fps=135 q=28.0 size=  174584kB time=00:27:00.99 bitrate= 882.3kbits/s    frame=38911 fps=134 q=28.0 size=  174909kB time=00:27:03.48 bitrate= 882.6kbits/s    frame=38983 fps=134 q=28.0 size=  175196kB time=00:27:06.49 bitrate= 882.4kbits/s    frame=39052 fps=134 q=28.0 size=  175519kB time=00:27:09.35 bitrate= 882.5kbits/s    frame=39117 fps=134 q=28.0 size=  175837kB time=00:27:12.06 bitrate= 882.6kbits/s    frame=39190 fps=135 q=28.0 size=  176140kB time=00:27:15.13 bitrate= 882.5kbits/s    frame=39270 fps=135 q=28.0 size=  176423kB time=00:27:18.46 bitrate= 882.1kbits/s    frame=39340 fps=135 q=28.0 size=  176722kB time=00:27:21.38 bitrate= 882.0kbits/s    frame=39412 fps=135 q=28.0 size=  177017kB time=00:27:24.39 bitrate= 881.9kbits/s    frame=39492 fps=135 q=28.0 size=  177304kB time=00:27:27.72 bitrate= 881.5kbits/s    frame=39567 fps=135 q=28.0 size=  177609kB time=00:27:30.83 bitrate= 881.4kbits/s    frame=39634 fps=135 q=28.0 size=  177955kB time=00:27:33.65 bitrate= 881.6kbits/s    frame=39708 fps=135 q=28.0 size=  178274kB time=00:27:36.72 bitrate= 881.5kbits/s    frame=39779 fps=135 q=28.0 size=  178555kB time=00:27:39.69 bitrate= 881.3kbits/s    frame=39857 fps=135 q=28.0 size=  178827kB time=00:27:42.93 bitrate= 880.9kbits/s    frame=39931 fps=135 q=28.0 size=  179054kB time=00:27:46.02 bitrate= 880.4kbits/s    frame=40009 fps=135 q=28.0 size=  179335kB time=00:27:49.26 bitrate= 880.1kbits/s    frame=40085 fps=135 q=28.0 size=  179599kB time=00:27:52.44 bitrate= 879.7kbits/s    frame=40125 fps=135 q=28.0 size=  179795kB time=00:27:54.11 bitrate= 879.8kbits/s    frame=40186 fps=135 q=28.0 size=  180108kB time=00:27:56.67 bitrate= 880.0kbits/s    frame=40266 fps=135 q=28.0 size=  180416kB time=00:28:00.02 bitrate= 879.7kbits/s    frame=40324 fps=135 q=28.0 size=  180737kB time=00:28:02.43 bitrate= 880.0kbits/s    frame=40383 fps=135 q=28.0 size=  181021kB time=00:28:04.86 bitrate= 880.1kbits/s    frame=40458 fps=135 q=28.0 size=  181305kB time=00:28:08.02 bitrate= 879.9kbits/s    frame=40525 fps=135 q=28.0 size=  181587kB time=00:28:10.77 bitrate= 879.8kbits/s    frame=40579 fps=135 q=28.0 size=  181962kB time=00:28:13.05 bitrate= 880.4kbits/s    frame=40632 fps=135 q=28.0 size=  182324kB time=00:28:15.23 bitrate= 881.1kbits/s    frame=40685 fps=135 q=28.0 size=  182686kB time=00:28:17.47 bitrate= 881.6kbits/s    frame=40738 fps=134 q=28.0 size=  183031kB time=00:28:19.69 bitrate= 882.2kbits/s    frame=40795 fps=134 q=28.0 size=  183393kB time=00:28:22.05 bitrate= 882.7kbits/s    frame=40861 fps=134 q=28.0 size=  183663kB time=00:28:24.81 bitrate= 882.5kbits/s    frame=40934 fps=134 q=28.0 size=  183905kB time=00:28:27.84 bitrate= 882.1kbits/s    frame=41008 fps=134 q=28.0 size=  184124kB time=00:28:30.93 bitrate= 881.6kbits/s    frame=41078 fps=134 q=28.0 size=  184431kB time=00:28:33.83 bitrate= 881.6kbits/s    frame=41141 fps=134 q=28.0 size=  184694kB time=00:28:36.48 bitrate= 881.5kbits/s    frame=41223 fps=135 q=28.0 size=  185053kB time=00:28:39.91 bitrate= 881.4kbits/s    frame=41304 fps=135 q=28.0 size=  185352kB time=00:28:43.30 bitrate= 881.1kbits/s    frame=41384 fps=135 q=28.0 size=  185683kB time=00:28:46.63 bitrate= 881.0kbits/s    frame=41459 fps=135 q=28.0 size=  186032kB time=00:28:49.77 bitrate= 881.0kbits/s    frame=41524 fps=135 q=28.0 size=  186292kB time=00:28:52.45 bitrate= 880.9kbits/s    frame=41590 fps=135 q=28.0 size=  186545kB time=00:28:55.21 bitrate= 880.7kbits/s    frame=41665 fps=135 q=28.0 size=  186839kB time=00:28:58.32 bitrate= 880.5kbits/s    frame=41731 fps=135 q=28.0 size=  187123kB time=00:29:01.09 bitrate= 880.4kbits/s    frame=41792 fps=135 q=28.0 size=  187416kB time=00:29:03.65 bitrate= 880.5kbits/s    frame=41865 fps=135 q=28.0 size=  187710kB time=00:29:06.68 bitrate= 880.4kbits/s    frame=41937 fps=135 q=28.0 size=  188081kB time=00:29:09.69 bitrate= 880.6kbits/s    frame=42010 fps=135 q=28.0 size=  188448kB time=00:29:12.74 bitrate= 880.8kbits/s    frame=42083 fps=135 q=28.0 size=  188827kB time=00:29:15.79 bitrate= 881.0kbits/s    frame=42135 fps=135 q=28.0 size=  189196kB time=00:29:17.95 bitrate= 881.6kbits/s    frame=42200 fps=135 q=28.0 size=  189573kB time=00:29:20.66 bitrate= 882.0kbits/s    frame=42273 fps=135 q=28.0 size=  190003kB time=00:29:23.71 bitrate= 882.5kbits/s    frame=42345 fps=135 q=28.0 size=  190417kB time=00:29:26.72 bitrate= 882.9kbits/s    frame=42415 fps=135 q=28.0 size=  190820kB time=00:29:29.64 bitrate= 883.3kbits/s    frame=42488 fps=135 q=28.0 size=  191201kB time=00:29:32.67 bitrate= 883.6kbits/s    frame=42607 fps=135 q=28.0 size=  191526kB time=00:29:37.64 bitrate= 882.6kbits/s    frame=42653 fps=135 q=32766.0 Lsize=  192655kB time=00:29:38.98 bitrate= 887.1kbits/s    
video:163966kB audio:27781kB subtitle:0 global headers:0kB muxing overhead 0.473249%
[libx264 @ 0xa7a740] frame I:472   Avg QP:20.23  size: 18898
[libx264 @ 0xa7a740] frame P:39749 Avg QP:23.86  size:  3940
[libx264 @ 0xa7a740] frame B:2432  Avg QP:27.03  size:   970
[libx264 @ 0xa7a740] consecutive B-frames: 91.6%  1.8%  1.5%  5.0%
[libx264 @ 0xa7a740] mb I  I16..4:  7.7% 90.3%  2.0%
[libx264 @ 0xa7a740] mb P  I16..4:  0.2%  1.2%  0.1%  P16..4: 42.3% 15.0% 10.9%  0.0%  0.0%    skip:30.3%
[libx264 @ 0xa7a740] mb B  I16..4:  0.1%  0.7%  0.1%  B16..8: 34.1%  2.7%  0.6%  direct: 1.0%  skip:60.7%  L0:43.7% L1:45.8% BI:10.5%
[libx264 @ 0xa7a740] 8x8 transform intra:85.2% inter:78.9%
[libx264 @ 0xa7a740] coded y,uvDC,uvAC intra: 79.6% 79.6% 34.4% inter: 28.4% 23.1% 1.7%
[libx264 @ 0xa7a740] i16 v,h,dc,p: 46% 25% 14% 15%
[libx264 @ 0xa7a740] i8 v,h,dc,ddl,ddr,vr,hd,vl,hu: 26% 19% 22%  4%  5%  7%  5%  7%  6%
[libx264 @ 0xa7a740] i4 v,h,dc,ddl,ddr,vr,hd,vl,hu: 28% 15% 12%  5%  9% 10%  7%  8%  5%
[libx264 @ 0xa7a740] i8c dc,h,v,p: 44% 22% 28%  7%
[libx264 @ 0xa7a740] Weighted P-Frames: Y:0.6% UV:0.3%
[libx264 @ 0xa7a740] ref P L0: 74.7% 16.6%  6.8%  1.9%  0.0%
[libx264 @ 0xa7a740] ref B L0: 91.1%  7.6%  1.3%
[libx264 @ 0xa7a740] ref B L1: 96.4%  3.6%
[libx264 @ 0xa7a740] kb/s:755.04
